<svg xmlns="http://www.w3.org/2000/svg" width="25.877" height="25.185" viewBox="0 0 25.877 25.185"><defs><style>.a{fill:#fff;}</style></defs><path class="a" d="M28.949,4.5H5.929A1.411,1.411,0,0,0,4.5,5.89v22.4a1.411,1.411,0,0,0,1.429,1.39h11.51V19.716H14.346V16.043h3.093V13.328c0-3.253,2.318-5.024,5.3-5.024,1.429,0,2.965.1,3.322.151v3.4H23.686c-1.624,0-1.934.748-1.934,1.85v2.341H25.62l-.505,3.673H21.752v9.969h7.2a1.411,1.411,0,0,0,1.429-1.39V5.89A1.411,1.411,0,0,0,28.949,4.5Z" transform="translate(-4.5 -4.5)"/></svg>